<svg width="34" height="20" viewBox="0 0 34 20" fill="none" xmlns="http://www.w3.org/2000/svg">
<path d="M0 10.27C0 10.27 0.632755 11.0739 1.33767 12.3562C3.2028 11.9714 6.75404 12.0918 10.2688 12.3637C10.4418 12.377 10.5878 12.4998 10.6348 12.6703C10.6356 12.6731 10.6364 12.676 10.6372 12.6789C10.7147 12.9602 10.4938 13.2346 10.2082 13.2124C8.06942 13.0466 6.24067 12.9627 4.74743 12.9627C3.47799 12.9627 2.47064 13.0238 1.74761 13.145C2.59292 14.8725 3.38816 17.1881 3.19132 19.5432C3.17119 19.7886 3.35773 20 3.59875 20H30.579C30.014 19.4926 29.417 19.0253 28.7965 18.6056C28.5368 18.4298 28.2953 18.278 28.0794 18.1538C27.4113 17.7694 26.7332 17.4074 26.046 17.0681C25.7768 16.9352 25.7312 16.5647 25.9594 16.3675C25.9617 16.3655 25.9641 16.3634 25.9665 16.3614C26.0903 16.2549 26.2647 16.2322 26.4106 16.304C27.1138 16.6503 27.8067 17.0197 28.4888 17.412C28.7381 17.5552 28.9973 17.72 29.2575 17.8958C30.172 18.5144 31.0247 19.2201 31.8071 20H33.7575C33.9578 20 34.0712 19.7661 33.9504 19.6033L33.5847 19.1119C32.3781 17.4896 30.9211 16.0761 29.2576 14.9517C28.9974 14.7753 28.7382 14.6111 28.4888 14.4678C23.9383 11.8492 18.8934 10.2529 13.6944 9.727C7.81249 9.132 0 8.64716 0 10.27ZM20.7454 14.0752C20.9992 13.5703 21.5152 13.2242 22.1087 13.2242C22.953 13.2242 23.6398 13.9249 23.6398 14.7864C23.6398 14.8831 23.6309 14.9773 23.6147 15.0689C23.5627 15.3589 23.4316 15.6209 23.2461 15.8317C22.9658 16.1493 22.5598 16.3492 22.1087 16.3492C21.3041 16.3492 20.6424 15.7125 20.5815 14.9076C20.5786 14.8676 20.5771 14.827 20.5771 14.7864C20.5771 14.5305 20.6379 14.2885 20.7454 14.0752ZM16.677 13.0939C16.8969 12.5059 17.4555 12.0877 18.1079 12.0877C18.9522 12.0877 19.639 12.7884 19.639 13.6499C19.639 13.6865 19.6376 13.7231 19.6351 13.7591C19.6149 14.0561 19.5134 14.3306 19.3523 14.559C19.074 14.9542 18.6199 15.2122 18.1079 15.2122C17.3622 15.2122 16.7388 14.6652 16.6038 13.9439C16.5856 13.8488 16.5763 13.7506 16.5763 13.6499C16.5763 13.4541 16.6117 13.2668 16.677 13.0939ZM12.5761 13.4175C12.582 13.111 12.6747 12.8255 12.8308 12.5866C13.1053 12.1648 13.575 11.8863 14.1072 11.8863C14.764 11.8863 15.326 12.3111 15.5425 12.9051C15.6044 13.0749 15.6382 13.2577 15.6382 13.4491C15.6382 13.5608 15.6269 13.6695 15.6044 13.7746C15.4576 14.4804 14.842 15.0113 14.1072 15.0113C13.2628 15.0113 12.5756 14.3106 12.5756 13.4491C12.5756 13.4386 12.5756 13.428 12.5761 13.4175Z" fill="url(#paint0_linear)"/>
<path d="M17.4308 2.73785L16.0691 4.73741L13.0294 4.80795C12.7639 4.814 12.5222 4.96417 12.3947 5.20101L10.8057 8.15298C10.7355 8.28249 10.8195 8.44273 10.9643 8.45533C11.7235 8.52084 12.5173 8.59492 13.3437 8.67857C16.0172 8.94867 18.662 9.49693 21.2044 10.3088C23.0436 10.8953 24.8367 11.622 26.5602 12.4791C26.7055 12.5512 26.8706 12.4262 26.8454 12.263L25.849 5.81076L29.7211 5.17431C29.9222 5.14105 30.0878 4.99642 30.151 4.79939L30.6557 3.22615C30.7703 2.86786 30.5089 2.5 30.1392 2.5H17.8771C17.6991 2.5 17.5321 2.58869 17.4308 2.73785ZM18.1029 6.12823L18.3842 7.94889C18.4064 8.091 18.2809 8.21093 18.143 8.18019C16.6029 7.83702 15.0395 7.58355 13.4657 7.42481C13.2942 7.40768 13.1232 7.39055 12.9537 7.37392C12.8099 7.35981 12.7279 7.20057 12.7971 7.07207L13.2854 6.16401C13.32 6.10001 13.3852 6.05969 13.4569 6.05818L17.9003 5.95538C18.0006 5.95286 18.0871 6.02694 18.1029 6.12823Z" fill="url(#paint1_linear)"/>
<path d="M28.801 13.8301C29.5082 14.2376 30.1342 14.6267 30.6829 15L29.8904 9.8545C29.8284 9.45135 29.4843 9.15767 29.0851 9.16688L27.3659 9.20698L27.842 12.2988C27.8902 12.6115 27.8101 12.9279 27.6214 13.176C28.0185 13.388 28.4119 13.6057 28.801 13.8301Z" fill="url(#paint2_linear)"/>
<path d="M23.7553 0.683024C23.8167 0.674867 23.867 0.637945 23.8866 0.587284L24.0406 0.185428C24.0753 0.0939808 23.9958 0 23.8826 0H20.1407C20.0864 0 20.035 0.0227122 20.0044 0.0609657L19.4807 0.704534C19.467 0.720848 19.4585 0.738022 19.4545 0.755624C19.3956 0.984458 19.3312 1.21243 19.2115 1.42323L19.0732 1.66667H21.6066L21.9976 0.92521L23.7553 0.683024Z" fill="url(#paint3_linear)"/>
<path d="M29.56 0.683024C29.6214 0.674867 29.6717 0.637945 29.6913 0.587284L29.8453 0.185428C29.8805 0.0939808 29.8005 0 29.6878 0H25.9451C25.8908 0 25.84 0.0227122 25.8088 0.0609657L25.3932 0.571441L25.2851 0.704534C25.272 0.720848 25.2634 0.738022 25.2589 0.755624C25.2005 0.984458 25.1361 1.21243 25.0164 1.42323L24.878 1.66667H27.4112L27.8026 0.92521L29.56 0.683024Z" fill="url(#paint4_linear)"/>
<path d="M14.0979 14.1667C14.4712 14.1667 14.7878 13.9172 14.8913 13.5749C14.9146 13.4986 14.9268 13.4176 14.9268 13.3336C14.9268 12.874 14.5547 12.5 14.0979 12.5C13.6404 12.5 13.2683 12.874 13.2683 13.3336C13.2683 13.3536 13.2689 13.373 13.2706 13.3923C13.3004 13.8244 13.6603 14.1667 14.0979 14.1667Z" fill="url(#paint5_linear)"/>
<path d="M18.2442 14.1667C18.3511 14.1667 18.4533 14.1461 18.5468 14.1091C18.8546 13.9876 19.0732 13.6857 19.0732 13.3333C19.0732 13.2916 19.0702 13.2499 19.0645 13.21C19.0048 12.8083 18.6596 12.5 18.2443 12.5C17.9551 12.5 17.7004 12.6492 17.5519 12.8753C17.4649 13.0068 17.4146 13.1636 17.4146 13.3333C17.4146 13.5577 17.5028 13.7609 17.6466 13.9106C17.7973 14.0686 18.0099 14.1667 18.2442 14.1667Z" fill="url(#paint6_linear)"/>
<path d="M21.9758 15.8333C22.0131 15.8333 22.0491 15.8234 22.0835 15.8046C22.26 15.7089 22.3902 15.3842 22.3902 14.9997C22.3902 14.9897 22.3902 14.9797 22.39 14.9698C22.3821 14.5242 22.1992 14.1667 21.9758 14.1667C21.8472 14.1667 21.7321 14.2847 21.6559 14.4696C21.5966 14.6134 21.561 14.7983 21.561 14.9997C21.561 15.1893 21.5925 15.3649 21.6463 15.5052C21.7219 15.7042 21.8414 15.8333 21.9758 15.8333Z" fill="url(#paint7_linear)"/>
<defs>
<linearGradient id="paint0_linear" x1="34" y1="20" x2="16.5193" y2="-9.71722" gradientUnits="userSpaceOnUse">
<stop stop-color="#F1BD36"/>
<stop offset="1" stop-color="#F98D2A"/>
</linearGradient>
<linearGradient id="paint1_linear" x1="34" y1="20" x2="16.5193" y2="-9.71722" gradientUnits="userSpaceOnUse">
<stop stop-color="#F1BD36"/>
<stop offset="1" stop-color="#F98D2A"/>
</linearGradient>
<linearGradient id="paint2_linear" x1="34" y1="20" x2="16.5193" y2="-9.71722" gradientUnits="userSpaceOnUse">
<stop stop-color="#F1BD36"/>
<stop offset="1" stop-color="#F98D2A"/>
</linearGradient>
<linearGradient id="paint3_linear" x1="34" y1="20" x2="16.5193" y2="-9.71722" gradientUnits="userSpaceOnUse">
<stop stop-color="#F1BD36"/>
<stop offset="1" stop-color="#F98D2A"/>
</linearGradient>
<linearGradient id="paint4_linear" x1="34" y1="20" x2="16.5193" y2="-9.71722" gradientUnits="userSpaceOnUse">
<stop stop-color="#F1BD36"/>
<stop offset="1" stop-color="#F98D2A"/>
</linearGradient>
<linearGradient id="paint5_linear" x1="34" y1="20" x2="16.5193" y2="-9.71722" gradientUnits="userSpaceOnUse">
<stop stop-color="#F1BD36"/>
<stop offset="1" stop-color="#F98D2A"/>
</linearGradient>
<linearGradient id="paint6_linear" x1="34" y1="20" x2="16.5193" y2="-9.71722" gradientUnits="userSpaceOnUse">
<stop stop-color="#F1BD36"/>
<stop offset="1" stop-color="#F98D2A"/>
</linearGradient>
<linearGradient id="paint7_linear" x1="34" y1="20" x2="16.5193" y2="-9.71722" gradientUnits="userSpaceOnUse">
<stop stop-color="#F1BD36"/>
<stop offset="1" stop-color="#F98D2A"/>
</linearGradient>
</defs>
</svg>
