<svg xmlns="http://www.w3.org/2000/svg" viewBox="0 0 108.03 166.35"><defs><style>.cls-1,.cls-2{fill:#fff;}.cls-2{font-size:26.2px;font-family:MyriadPro-Bold, Myriad Pro;font-weight:700;}.cls-3{letter-spacing:-0.03em;}</style></defs><g id="Layer_2" data-name="Layer 2"><g id="Layer_1-2" data-name="Layer 1"><path class="cls-1" d="M105.94,162.16H99V25.71H9V162.16H2.1a2.1,2.1,0,1,0,0,4.19H105.94a2.1,2.1,0,0,0,0-4.19ZM80.39,34.38l1.14-2.31,1.14,2.31,2.55.37-1.84,1.8.43,2.54-2.28-1.2-2.28,1.2.43-2.54-1.84-1.8ZM49.26,33.32,51.41,29l2.16,4.37,4.81.7L54.9,37.41l.82,4.8L51.41,40,47.1,42.21l.83-4.8L44.44,34ZM37.61,82.9V68.57h13.8V82.9Zm13.8,5v14.33H37.61V87.88ZM37.61,63.59V49.27h13.8V63.59ZM20.15,34.38l1.14-2.31,1.14,2.31,2.55.37-1.84,1.8.43,2.54-2.28-1.2L19,39.09l.44-2.54-1.85-1.8ZM32.4,121.51H18.6V107.19H32.4Zm0-19.3H18.6V87.88H32.4Zm0-19.31H18.6V68.57H32.4Zm0-19.31H18.6V49.27H32.4Zm.53-22.74L33.58,37l-2.76-2.7,3.82-.56,1.71-3.46,1.71,3.46,3.83.56L39.12,37l.65,3.81-3.42-1.8Zm4.68,66.34h13.8v14.32H37.61Zm15.33,52.89H42.41V132.2H52.94Zm12.29,0H54.7V132.2H65.23Zm5.19-38.57H56.62V107.19h13.8Zm0-19.3H56.62V87.88h13.8Zm0-19.31H56.62V68.57h13.8Zm0-19.31H56.62V49.27h13.8ZM69.24,37l.65,3.81-3.42-1.8-3.42,1.8L63.7,37l-2.77-2.7,3.83-.56,1.71-3.46,1.71,3.46,3.83.56Zm20.2,84.47H75.63V107.19H89.44Zm0-19.3H75.63V87.88H89.44Zm0-19.31H75.63V68.57H89.44Zm0-19.31H75.63V49.27H89.44Z"/><text class="cls-2" transform="translate(14.6 21.93)">H<tspan class="cls-3" x="18.05" y="0">O</tspan><tspan x="36.11" y="0">TEL</tspan></text></g></g></svg>