<svg width="25" height="44" viewBox="0 0 25 44" fill="none" xmlns="http://www.w3.org/2000/svg">
<path d="M12.5 0C5.59073 0 0 5.5896 0 12.5V38.5714C0 41.3329 2.23858 43.5714 5 43.5714H20C22.7614 43.5714 25 41.3329 25 38.5714V30.1011C25 28.7317 24.1412 27.4816 22.8632 26.99L9.74229 21.9431C5.6924 20.386 3.24083 16.4531 3.33469 12.4666C3.41104 7.4595 7.44458 3.35135 12.4681 3.33344C17.5529 3.30978 21.6668 7.43844 21.6668 12.5001C21.6668 13.4375 22.4358 14.1782 23.3485 14.1667C24.2506 14.159 25.0068 13.3524 24.9998 12.4055C24.9491 5.55498 19.3925 0 12.5 0Z" fill="black"/>
</svg>
