<svg xmlns="http://www.w3.org/2000/svg" viewBox="0 0 476.74 162.62"><defs><style>.cls-1{fill:#fff;}</style></defs><g id="Layer_2" data-name="Layer 2"><g id="Layer_1-2" data-name="Layer 1"><path class="cls-1" d="M315.07,88.33A18.8,18.8,0,0,0,328.47,96c11-.38,44.09-1.86,44.09-1.86s3.16-.38,3.54-2-3.17-4.74-9.49-4.74S315.07,88.33,315.07,88.33Z"/><path class="cls-1" d="M146,26.17s11.45-40,52.75-21.07c0,0-10.61-1.67-13.82-.55,0,0,6.7,1.53,9.07,4.74,0,0-6.83-2.09-10.18-2.23,0,0,8.37,3.49,8.37,5.44,0,0-5.58-3.07-9.35-2.65,0,0,6.28,2.93,6.28,4.46,0,0-18.7-7.95-29.72,11.86a9.73,9.73,0,0,1,.84-6.41,18.5,18.5,0,0,0-5.31,6.41,15.92,15.92,0,0,1,4.33-8.51s-4.33,1.68-7.81,8.51c0,0-1-3.76,4.6-9.9A20.17,20.17,0,0,0,146,26.17Z"/><path class="cls-1" d="M0,21.57,2.51,18.5s233.58,11.22,442.88-5.41c0,0,25.77,10.15,31.35,18.71,0,0-22.14-13.21-28.83-13.39S101.86,30.5,0,21.57Z"/><path class="cls-1" d="M330.51,147.55s-28.74-10.42-36-13.58l-23.81-30.7s46.32,4.13,51.16,3.83,5-6.25,6.14-7.74-27.07-8.31-12.65-12.65a61.44,61.44,0,0,1,10.6,0l.93-40.37S450.6,35.55,460.65,30l-10.23-6.14S446,21,438.7,21.6,238.33,31.83,238.33,31.83L235,50.06,217.12,37s-28.19-3.63-39.63-.84c0,0,5.58.56,6.14,3.91s4.6,11.09-7.54,11.58-9.37-13.42-3-14.65c0,0-8.16.55-14.16,4.74,0,0,2.93,16.6,4.88,22.19l-29.16-19,21.63.56S152,35.55,169.53,34s20.8-3.21,20.8-3.21L0,26.25s6.23,8.65,11.26,10c0,0,8.09-3.91,26.14-.94s62.33,6.88,86.32,8.38l45.12,29.9,6.42.56-9.35-5.72,10,3.35-6.55-5.58s18.41,8,29.86-8.23l-1.12,4.88,7-5.72-6.42,9.49L208.46,57l-6.83,11.44,11.72-11s-6.7,24.42-34.75,25l4.47,4.89L147.35,117l-22.75-5.86s-11.16-3.49-19.53,2.37l6.84.56s23.16,20.23,73.58,34.56c0,0-6.14,1.11-9.3.18s-48-14.14-65.68-31.07c0,0-5-1.3-6.7-.18s-3.72,2.6-3.34,4.28,7.25,13,13.2,16.55l4.84-.93s19,13.4,57.12,23.07l1.67-4.46,46,.56s5-.38,7.07-1.31c0,0,1.67,3.91,3.72,4.47s4.65-8.93,4.28-10.6c0,0,31.62,12.27,37.76,13.39l1.31-3.91s47.25,2,53.58-1.11c0,0,4.09,8.74,6.14.37,0,0,.37-2.51.32-2.84s3-1.44,3-1.44l-3.12-2.79S333.12,126.43,330.51,147.55ZM308.21,45.22l-1.84,18.61s-1.13,10.75-17.87,2.42l-11.61-8.36,15.42-12Zm-27.75,1.16c-.1,1-5.63,5.59-6.53,6.37a1.92,1.92,0,0,1-2.09.09l-4.9-5.9ZM266,56.86c-2.37,4.76-8.1,3.59-8.1,3.59l-.21-15.17C259.8,44.31,268.32,52.1,266,56.86Zm-24.51-15.1c.23-1.24.61-2.59,1.77-2.64l9.58,1c2.11,1.07,1.87,2.82,1.91,4l-.1,10.9c-1,2.66-2.37,2.47-3.53,2.52l-8.49-2.86c-1.16,0-3.14-1.5-3.19-2.66Zm-10.73,58.82c1.86,3.72,8.56,16,11,19.35,0,0-16.75-6.51-24.37-6.88l-7.63-.38,14.51-14S228.86,96.86,230.72,100.58Zm-42.09,31.54,7.32-6.84,7.33,9.63C191,136,188.63,132.12,188.63,132.12Zm21.32-13s-3-3.35-10.6-1.3l-13.21,13-36.47-12.09L185.3,89.1S196.74,93,221,96.91l-17.86,17s6.42-.28,8.79,2.1,23.31,20,73.72,36.41C285.67,152.44,249.4,149.28,210,119.14Zm37.66,2.44-13-22.33S257,102.6,264.37,103l21.3,29Z"/></g></g></svg>