<svg xmlns="http://www.w3.org/2000/svg" viewBox="0 0 158.99 163.35"><defs><style>.cls-1{fill:#fff;}.cls-2{fill:none;stroke:#fff;stroke-miterlimit:10;stroke-width:2.01px;}</style></defs><g id="Layer_2" data-name="Layer 2"><g id="Layer_1-2" data-name="Layer 1"><rect class="cls-1" x="6.51" y="154.24" width="145.78" height="4.56"/><rect class="cls-1" y="158.79" width="158.99" height="4.56"/><rect class="cls-1" x="12.85" y="149.8" width="135.18" height="4.8"/><rect class="cls-1" x="18.75" y="145.62" width="121.64" height="4.8"/><rect class="cls-1" x="23.68" y="141.16" width="111.23" height="4.8"/><rect class="cls-1" x="58.72" y="136.84" width="41.07" height="4.8"/><rect class="cls-1" x="64.32" y="127.82" width="30.4" height="9.03"/><polygon class="cls-1" points="72.96 65.92 38.23 141.16 45.63 141.16 78.11 68.83 80.44 68.6 113.73 141.16 120.45 141.16 85.73 65.92 72.96 65.92"/><circle class="cls-1" cx="79.34" cy="59.16" r="9.6"/><circle class="cls-1" cx="104.38" cy="11.94" r="5.64"/><circle class="cls-1" cx="123.46" cy="29.07" r="5.64"/><circle class="cls-1" cx="132.54" cy="53.04" r="5.64"/><circle class="cls-1" cx="129.37" cy="78.35" r="5.64"/><circle class="cls-1" cx="114.93" cy="99.35" r="5.64"/><circle class="cls-1" cx="92.3" cy="111.35" r="5.64"/><circle class="cls-1" cx="66.76" cy="111.35" r="5.64"/><circle class="cls-1" cx="43.91" cy="99.39" r="5.64"/><circle class="cls-1" cx="29.32" cy="78.35" r="5.64"/><circle class="cls-1" cx="26.41" cy="53.04" r="5.64"/><circle class="cls-1" cx="35.41" cy="29.07" r="5.64"/><circle class="cls-1" cx="54.41" cy="11.94" r="5.64"/><circle class="cls-1" cx="79.45" cy="5.64" r="5.64"/><circle class="cls-2" cx="79.51" cy="59.4" r="53.43"/><rect class="cls-1" x="78.67" y="11.28" width="1.68" height="38.28"/><polygon class="cls-1" points="101.12 16.53 83.14 50.34 84.68 51.18 102.57 17.28 101.12 16.53"/><polygon class="cls-1" points="86.73 53.04 118.37 31.5 119.37 32.95 87.65 54.36 86.73 53.04"/><polygon class="cls-1" points="88.75 57.27 126.9 53.04 126.9 54.36 88.94 59.16 88.75 57.27"/><polygon class="cls-1" points="88.58 61.74 124.43 75.63 123.85 77.21 87.91 63.48 88.58 61.74"/><polygon class="cls-1" points="85.73 65.92 111.75 94.69 110.61 95.72 87.37 69.47 85.73 65.92"/><polygon class="cls-1" points="91.48 105.71 85.58 79.8 80.44 68.6 90.23 106.1 91.48 105.71"/><polygon class="cls-1" points="78.11 68.83 68.84 106.1 66.77 105.71 73.51 79.07 78.11 68.83"/><polygon class="cls-1" points="57.67 16.53 75.53 50.35 74 51.18 55.95 17.36 57.67 16.53"/><polygon class="cls-1" points="71.95 53.04 40.5 31.5 39.36 33.1 71.03 54.36 71.95 53.04"/><polygon class="cls-1" points="32.05 53.04 69.89 57.49 69.75 59.16 31.89 54.36 32.05 53.04"/><polygon class="cls-1" points="70.1 61.74 34.38 75.85 34.96 77.21 70.77 63.48 70.1 61.74"/><polygon class="cls-1" points="72.96 65.92 47.15 94.77 48.2 95.72 71 70.15 72.96 65.92"/></g></g></svg>