<svg width="32" height="14" viewBox="0 0 32 14" fill="none" xmlns="http://www.w3.org/2000/svg">
<path d="M31.226 6.95171L32 5.05675H23.5602L21.4054 2.8657H9.3072L6.01675 0.178356L5.27217 0L7.90265 2.86359H5.27279C5.27279 2.86359 5.27279 4.0571 9.23575 3.89989C11.1204 3.71167 12.5625 8.11773 10.792 7.86605C10.792 7.86605 4.53135 7.83997 3.99673 7.88086C2.97387 7.95559 2.0538 10.0613 1.5173 11.5904C1.47969 11.546 1.24278 11.5058 0.18921 11.6405C-0.08092 11.7899 0.01748 12.4773 0.01748 12.4773C-0.110377 12.8918 1.02655 13.1618 1.02655 13.1618H25.651C25.651 13.1569 33.5775 7.9711 31.226 6.95171ZM18.8156 5.72999H17.1391L14.1301 3.92386H19.1177L18.8156 5.72999ZM19.7069 5.86112L20.0046 3.91611H20.6439L22.6821 5.86112H19.7069ZM25.3157 6.6669C25.2593 6.66831 25.201 6.66972 25.1458 6.67254L24.0271 5.53401H25.755L25.3157 6.6669ZM27.4247 6.64575C26.9158 6.64223 26.3642 6.64928 25.7826 6.65915L26.2038 5.56221H27.8453L27.4247 6.64575ZM29.1922 6.67889C28.7998 6.66408 28.363 6.6528 27.8885 6.64787L28.3185 5.53331H29.6371L29.1922 6.67889ZM29.6465 6.70356L30.0972 5.53331H31.3369L30.8085 6.82975C30.5184 6.77335 30.1235 6.73105 29.6465 6.70356Z" fill="#929292"/>
</svg>
