<svg width="32" height="20" viewBox="0 0 32 20" fill="none" xmlns="http://www.w3.org/2000/svg">
<path d="M12.51 5.6L13.2084 5.18185C13.2532 5.15492 13.3046 5.1399 13.3575 5.1377L14.2554 5.10586C14.3185 5.10365 14.3793 5.0825 14.4289 5.04585L19.884 1.02994C20.0228 0.928384 20.0396 0.736308 19.9204 0.61444L19.4109 0.0912012C19.3062 -0.0156543 19.1328 -0.030711 19.0094 0.0571578L12 5.04188C12.0215 5.1324 12.0327 5.22601 12.0327 5.32226V5.5766L12.51 5.6Z" fill="url(#paint0_linear)"/>
<path d="M31.7066 5.64603L30.5398 5.82112C30.4506 5.83488 30.3749 5.89517 30.3404 5.98058L28.9663 9.40002C28.8787 9.61874 28.6701 9.76138 28.4388 9.76138H19.4347C19.4069 9.2185 18.9847 8.77069 18.4402 8.73421L14.4484 8.46662L14.4386 8.32665C14.4156 8.00379 14.1404 7.76099 13.8242 7.78442L11.452 7.96017V7.01686L14.352 7.41076C14.4037 7.41775 14.4527 7.4387 14.494 7.47128L15.1927 8.02403C15.2417 8.06272 15.3014 8.08479 15.3633 8.08699L22.1637 8.32975C22.3363 8.3359 22.4772 8.19025 22.4691 8.01407L22.4341 7.25928C22.427 7.10438 22.306 6.98033 22.1543 6.97235L11.452 6.4081V5.37956C11.452 5.05431 11.1938 4.79061 10.8752 4.79061C10.5567 4.79061 10.2984 5.05431 10.2984 5.37956V6.42993L1.17374 1.6335C1.03872 1.56251 0.873023 1.60763 0.79052 1.73779L0.388395 2.37228C0.294578 2.52028 0.344614 2.71862 0.496837 2.80191L6.49394 6.0843C6.54858 6.11421 6.61098 6.12585 6.67238 6.1175L7.54865 5.99866C7.60034 5.99171 7.653 5.9988 7.70115 6.01927L10.2983 7.1241V8.04572L7.77165 8.23293C7.45538 8.25636 7.21762 8.53705 7.24057 8.85991L7.2855 9.49426L5.95307 9.6185C5.65916 9.64592 5.38295 9.77289 5.16809 9.97953L3.26057 11.8122C3.11396 11.9532 2.94633 12.0688 2.76394 12.1552L1.09492 12.9446C0.582191 13.1871 0.203658 13.6533 0.0655544 14.2129L0.0252224 14.3763C-0.094808 14.8613 0.226607 15.3446 0.712431 15.4096C0.781644 15.419 0.849202 15.437 0.913494 15.4638C0.977786 15.4902 1.03881 15.5254 1.0946 15.568L2.7971 16.8624C3.08181 17.0788 3.42889 17.1926 3.78346 17.1863L5.86399 17.1486L5.61754 18.9837L5.18216 18.9951C5.0287 18.9979 4.88218 18.9274 4.78919 18.8032L3.95307 17.6869C3.78802 17.4665 3.4792 17.4244 3.26333 17.593C3.04746 17.7615 3.0063 18.0768 3.17135 18.2972L4.00747 19.4135C4.28396 19.7826 4.7163 20 5.17011 20C5.18253 20 5.19499 19.9999 5.20741 19.9995L16.6304 19.6999C16.9021 19.6928 17.1166 19.4622 17.1096 19.1848C17.1028 18.9118 16.8839 18.6953 16.618 18.6953C16.6138 18.6953 16.6094 18.6954 16.6052 18.6955L14.3815 18.7538L14.7722 16.9872L16.1951 16.9614C16.7626 16.9511 17.2828 16.6353 17.5623 16.1305L18.9305 13.6619C19.1169 13.3253 19.4485 13.0992 19.8241 13.052L30.4325 11.721C30.6753 11.6905 30.8718 11.5057 30.9213 11.2612L31.9946 5.95743C32.0304 5.77966 31.8825 5.61987 31.7066 5.64603ZM8.88862 12.3909L9.81695 10.2642L9.83401 10.225C9.87535 10.1305 9.96751 10.0695 10.0689 10.0695H12.1601C12.1896 10.0695 12.2181 10.0745 12.2444 10.0842C12.3447 10.1198 12.4169 10.2172 12.4169 10.3318V12.4977C12.4169 12.6427 12.3018 12.7599 12.16 12.7599H9.12344C8.9375 12.76 8.81283 12.5644 8.88862 12.3909ZM5.66477 14.9745C5.58994 15.098 5.45809 15.1731 5.3164 15.1731H4.38509C4.1384 15.1731 3.94783 14.9527 3.97832 14.7028L4.20136 12.8819C4.21088 12.8035 4.24238 12.7292 4.29159 12.6682L5.76608 10.8375C5.84417 10.7411 5.95997 10.6852 6.08262 10.6852H8.31749C8.61172 10.6852 8.81016 10.9926 8.69372 11.2686L7.91922 13.1059C7.86082 13.2449 7.73325 13.3407 7.58594 13.3568L6.77801 13.4436C6.65173 13.457 6.53888 13.5297 6.47233 13.6395L5.66477 14.9745ZM13.6442 18.7731L6.33639 18.9648L6.74159 17.1326L13.8818 17.0034L13.6442 18.7731ZM15.003 11.9786L14.3818 12.712C14.3562 12.7425 14.3188 12.76 14.2795 12.76H13.3354C13.2622 12.76 13.2022 12.7011 13.1999 12.6263L13.1215 10.2126C13.1189 10.1342 13.1802 10.0696 13.2567 10.0696H14.743C14.8128 10.0696 14.8712 10.1239 14.8778 10.1949L15.0356 11.8751C15.0391 11.9126 15.0274 11.9502 15.003 11.9786Z" fill="url(#paint1_linear)"/>
<defs>
<linearGradient id="paint0_linear" x1="0" y1="0" x2="17.9775" y2="28.764" gradientUnits="userSpaceOnUse">
<stop stop-color="#10CB2E"/>
<stop offset="1" stop-color="#8FF09E"/>
</linearGradient>
<linearGradient id="paint1_linear" x1="0" y1="0" x2="17.9775" y2="28.764" gradientUnits="userSpaceOnUse">
<stop stop-color="#10CB2E"/>
<stop offset="1" stop-color="#8FF09E"/>
</linearGradient>
</defs>
</svg>
