<svg width="32" height="18" viewBox="0 0 32 18" fill="none" xmlns="http://www.w3.org/2000/svg">
<path d="M1.26788 6.2885C0.930795 6.2885 0.657565 6.63444 0.657565 7.06111V7.7731C0.657565 8.33679 0 8.74704 0 9.31073C0 9.8744 0.657565 10.2847 0.657565 10.8483V11.9792C0.657565 12.0915 0.72949 12.1825 0.818193 12.1825C1.15527 12.1825 1.4285 11.8367 1.4285 11.4099V10.4124C1.4285 10.2252 1.58895 10.0791 1.7762 10.0791C1.87657 10.0791 1.96427 10.1465 1.99902 10.2407C2.09629 10.5043 2.26471 10.7225 2.48143 10.8494L5.14157 12.4072C5.58804 12.6687 6.07414 12.8042 6.56604 12.8042C6.60969 12.8042 6.64061 12.8468 6.62707 12.8883L6.12462 14.4279C5.95824 14.9377 5.4828 15.2827 4.94651 15.2827H4.39136C4.3037 15.2827 4.23264 15.3726 4.23264 15.4836C4.23264 16.8734 5.12262 18 6.22043 18H10.8838C11.2527 18 11.5996 17.8821 11.9027 17.6747C12.8593 17.0196 13.9186 16.6414 15.0061 16.6414H19.2281C19.3283 16.6414 19.4095 16.5385 19.4095 16.4117C19.4095 15.7882 19.0102 15.2827 18.5176 15.2827H18.4792C17.8246 15.2827 17.2443 14.8616 17.0412 14.2393C16.7711 13.4118 17.292 12.5254 17.9173 11.9198C17.9551 11.8832 17.9924 11.8455 18.029 11.8067C18.5511 11.2552 19.1921 10.915 19.8689 10.8303L27.8605 9.82947C28.451 9.75553 28.9558 9.25957 29.1588 8.55373L31.4829 0.475059C31.5493 0.244218 31.4142 0 31.2201 0C30.1574 0 29.168 0.686265 28.596 1.82015L27.2357 4.51698C26.9151 5.15244 26.3344 5.49769 25.7435 5.40417L17.8254 4.15117L11.4462 3.24761C10.6862 3.13997 9.92253 3.4071 9.31398 3.99347L7.21472 6.01632C6.88743 6.33173 6.51198 6.55775 6.11214 6.68014L2.66495 7.73514C2.3799 7.82238 2.14889 8.06044 2.01933 8.37255C1.97813 8.47182 1.88363 8.54231 1.77615 8.54231C1.5889 8.54231 1.42846 8.39625 1.42846 8.20901V6.49178C1.4285 6.37949 1.35658 6.2885 1.26788 6.2885ZM14.5813 14.4278C14.4149 14.9376 13.9395 15.2826 13.4032 15.2826H9.82408C9.28779 15.2826 8.81236 14.9376 8.64598 14.4278C8.38457 13.6268 8.9815 12.804 9.82408 12.804H13.4032C14.2458 12.804 14.8427 13.6268 14.5813 14.4278ZM16.3286 14.6119C16.4366 14.9427 16.19 15.2826 15.842 15.2826C15.494 15.2826 15.2474 14.9427 15.3554 14.6118C15.509 14.1411 16.175 14.1411 16.3286 14.6119ZM16.4402 6.00335C16.6412 5.74406 16.9267 5.48927 17.2505 5.54191L17.8678 5.64225C18.1997 5.69621 18.3897 6.14974 18.2387 6.52807L17.8646 7.4667C17.783 7.67165 17.6174 7.80139 17.4365 7.80369L16.5988 7.81392C16.0131 7.82108 15.6966 6.96664 16.0543 6.50281L16.4402 6.00335ZM7.90135 7.15841L10.0006 5.13533C10.3194 4.82877 10.7153 4.65941 11.1153 4.65941C11.1833 4.65941 11.2522 4.66458 11.3202 4.67376L15.8371 5.31345C15.8602 5.31672 15.8712 5.34362 15.857 5.36209L15.5028 5.82079C14.9758 6.5028 14.3419 7.0281 13.6462 7.36509C13.2984 7.53387 12.9351 7.65615 12.5624 7.72734L10.0917 8.19981C9.39361 8.33333 8.68638 8.28356 8.0119 8.06155C7.63353 7.93701 7.61454 7.43483 7.90135 7.15841ZM6.89865 14.6119C7.05228 14.1411 7.71829 14.1411 7.87193 14.6118C7.97991 14.9427 7.73334 15.2826 7.38529 15.2826C7.03725 15.2826 6.79068 14.9427 6.89865 14.6119Z" fill="url(#paint0_linear)"/>
<defs>
<linearGradient id="paint0_linear" x1="0" y1="0" x2="15.5077" y2="27.1385" gradientUnits="userSpaceOnUse">
<stop stop-color="#14A1CD"/>
<stop offset="1" stop-color="#98DAEF"/>
</linearGradient>
</defs>
</svg>
