<svg xmlns="http://www.w3.org/2000/svg" viewBox="0 0 389 141.42"><defs><style>.cls-1{fill:#fff;}</style></defs><g id="Layer_2" data-name="Layer 2"><g id="Layer_1-2" data-name="Layer 1"><path class="cls-1" d="M198.76,141.42l-120-.7c-2.69,0-28.32-4.33-28.32-11.11v-3.68c3.49-4.75,20.09,5,28.32,4.88l120,.84a4.89,4.89,0,0,1,4.89,4.88h0A4.89,4.89,0,0,1,198.76,141.42Z"/><rect class="cls-1" y="7.67" width="304.12" height="4.47" rx="2.23"/><rect class="cls-1" x="111.88" y="4.33" width="80.37" height="11.16" rx="5.58"/><rect class="cls-1" x="142.84" width="23.12" height="19.81" rx="5.68"/><rect class="cls-1" x="93.32" y="113.63" width="6.51" height="17.86"/><rect class="cls-1" x="159.93" y="113.63" width="6.51" height="17.86"/><path class="cls-1" d="M380.84,35.37c-5.45-6.14-5.31-15.28-2.45-24.42s-7-10.95-7-10.95-11.72.28-17,.56-7.88,7.6-7.88,7.6-7.81,21.21-15.07,36S314.14,58.67,308,59.23s-59.72-.7-67.4-4.18C226.65,38.58,181.16,37.6,181.16,37.6c-4.74-14.09-20.23-13.53-20.23-13.53l-1.81-4.74h-11l-1.67,6.14c-16.33-1.12-20.93,12.83-20.93,12.83-3.35.28-30,4.33-36,6.14a35.22,35.22,0,0,0-9.35,4.19C13.67,64.72,26.23,83.7,26.23,83.7c17.12,32.74,70.14,31.63,80.56,32S181,117.42,181,117.42c19-4,46.19-30.28,53.55-36S254.14,77,254.14,77L326,76.67c29.16,6,38.79,4.33,54-2C397.16,65.37,385.3,40,380.84,35.37ZM34.31,80.14s-1.71-.17-.84-2.51c0,0,10.6-16.33,41.58-22.75,0,0,7.4-2.23,1.26,4.19S57.19,77.63,57.19,77.63,54,82.79,34.31,80.14Zm65.81-4.81a5.9,5.9,0,0,1-5.89,5.9H77.37c-3.25,0-8.66,1.33-8.66-1.93L79,63.82c2.48-3.63,5.67-7.43,8.93-7.43h6.26a5.89,5.89,0,0,1,5.89,5.89Zm33.29,2a4.17,4.17,0,0,1-4.17,4.17H108.93a4.17,4.17,0,0,1-4.16-4.17V60.83a4.17,4.17,0,0,1,4.16-4.17h20.31a4.17,4.17,0,0,1,4.17,4.17Zm218.5-7.13s-8.09-4-8.84-9.21L355,55.6l2.33,2.51Zm3.37-18.57-12.21-5.15s3.84-8.17,9-9l5.64,11.79ZM367.34,70.2,361.7,58.41,364.16,56l12.2,5.15S372.53,69.35,367.34,70.2Zm-2.88-18.14-2.33-2.51,5.4-12.09s8.09,4,8.83,9.21Z"/></g></g></svg>