<svg width="20" height="20" viewBox="0 0 20 20" fill="none" xmlns="http://www.w3.org/2000/svg">
<path d="M16.3235 18.5203H3.38235V20H16.3235V18.5203Z" fill="#9B9898"/>
<path d="M12.1814 6.60915H7.64709C7.24095 6.60915 6.91177 6.94036 6.91177 7.34899C6.91177 7.75763 7.24095 8.08884 7.64709 8.08884H12.1814C12.5875 8.08884 12.9167 7.75763 12.9167 7.34899C12.9167 6.94036 12.5875 6.60915 12.1814 6.60915Z" fill="#9B9898"/>
<path d="M15.6128 10.0617H7.64709C7.24095 10.0617 6.91177 10.3929 6.91177 10.8015C6.91177 11.2101 7.24095 11.5413 7.64709 11.5413H15.6128C16.0189 11.5413 16.3481 11.2101 16.3481 10.8015C16.3481 10.3929 16.0189 10.0617 15.6128 10.0617Z" fill="#9B9898"/>
<path d="M19.5667 0.0901024C19.3027 -0.0292612 18.9942 0.0178633 18.7775 0.210449L16.7184 2.04323L14.6569 0.188478C14.3777 -0.062826 13.9557 -0.062826 13.6765 0.188478L11.6177 2.04099L9.55861 0.188478C9.27943 -0.062826 8.85763 -0.062826 8.57845 0.188478L6.51693 2.04323L4.45786 0.210449C4.24145 0.0180991 3.93263 -0.0290253 3.66864 0.0901024C3.40493 0.209702 3.23532 0.473583 3.23532 0.764583V13.9334H0.735314C0.32918 13.9334 0 14.2646 0 14.6732V16.4735C0 18.418 1.57231 20 3.50489 20V18.5203C2.38309 18.5203 1.47059 17.602 1.47059 16.4735V15.4131H12.9902V16.4735C12.9902 18.418 14.5625 20 16.4951 20C18.4277 20 20 18.418 20 16.4735V0.764544C20 0.473544 19.8304 0.209702 19.5667 0.0901024ZM18.5295 16.4735C18.5295 17.602 17.6167 18.5203 16.4951 18.5203C15.3736 18.5203 14.4608 17.602 14.4608 16.4735V14.6732C14.4608 14.2646 14.1317 13.9334 13.7255 13.9334H4.70591V2.40671L6.03263 3.58773C6.31204 3.83632 6.73212 3.83506 7.00982 3.58501L9.06865 1.7325L11.1275 3.58478C11.4067 3.83608 11.8287 3.83608 12.1079 3.58478L14.1669 1.73227L16.2258 3.58478C16.5037 3.83482 16.9238 3.83581 17.203 3.58749L18.5295 2.40675V16.4735Z" fill="#9B9898"/>
</svg>
